<?xml version="1.0" standalone="no"?>
<!DOCTYPE svg PUBLIC "-//W3C//DTD SVG 20010904//EN"
 "http://www.w3.org/TR/2001/REC-SVG-20010904/DTD/svg10.dtd">
<svg version="1.0" xmlns="http://www.w3.org/2000/svg"
 width="409.000000pt" height="409.000000pt" viewBox="0 0 409.000000 409.000000"
 preserveAspectRatio="xMidYMid meet">
<metadata>
Created by potrace 1.11, written by Peter Selinger 2001-2013
</metadata>
<g transform="translate(0.000000,409.000000) scale(0.100000,-0.100000)"
fill="#000000" stroke="none">
<path d="M2162 4069 c-321 -110 -582 -342 -721 -640 -39 -83 -86 -211 -94
-259 -3 -14 -10 -43 -16 -65 -28 -105 -40 -245 -37 -445 2 -113 6 -214 10
-225 4 -11 -8 9 -26 45 -41 82 -142 185 -223 227 -78 40 -183 70 -271 79 l-72
6 21 -68 c31 -107 30 -471 -3 -689 -5 -33 -12 -85 -15 -115 -4 -30 -13 -95
-20 -145 -8 -49 -17 -110 -20 -135 -3 -25 -12 -92 -20 -150 -20 -156 -12 -369
20 -505 96 -417 424 -751 884 -905 182 -60 264 -74 441 -74 138 -1 257 7 300
19 8 2 26 6 40 9 78 13 213 57 306 101 276 127 498 353 638 649 44 93 112 292
121 356 4 24 8 47 10 50 3 6 9 42 22 145 10 78 10 468 1 567 -10 98 -17 147
-44 293 -9 50 -44 186 -65 255 -50 160 -161 412 -204 465 -16 20 -16 19 -10
-5 3 -14 12 -63 18 -110 35 -243 -56 -420 -215 -420 -79 0 -204 111 -236 210
-7 19 -19 82 -27 140 -40 264 -72 345 -224 565 -103 149 -141 215 -183 321
-53 129 -61 168 -62 279 -1 74 4 111 17 144 10 24 17 45 15 46 -2 1 -27 -6
-56 -16z"/>
</g>
</svg>
